<?xml version="1.0" encoding="UTF-8" standalone="no"?>
<svg
   height="16px"
   viewBox="0 0 16 16"
   width="16px"
   version="1.1"
   id="svg1"
   sodipodi:docname="eye-not-looking-symbolic.svg"
   inkscape:version="1.4 (e7c3feb100, 2024-10-09)"
   xmlns:inkscape="http://www.inkscape.org/namespaces/inkscape"
   xmlns:sodipodi="http://sodipodi.sourceforge.net/DTD/sodipodi-0.dtd"
   xmlns="http://www.w3.org/2000/svg"
   xmlns:svg="http://www.w3.org/2000/svg">
  <defs
     id="defs1" />
  <sodipodi:namedview
     id="namedview1"
     pagecolor="#ffffff"
     bordercolor="#000000"
     borderopacity="0.25"
     inkscape:showpageshadow="2"
     inkscape:pageopacity="0.0"
     inkscape:pagecheckerboard="0"
     inkscape:deskcolor="#d1d1d1"
     showgrid="true"
     inkscape:window-width="1536"
     inkscape:window-height="792"
     inkscape:window-x="0"
     inkscape:window-y="0"
     inkscape:window-maximized="1"
     inkscape:current-layer="svg1">
    <inkscape:grid
       id="grid1"
       units="px"
       originx="0"
       originy="0"
       spacingx="1"
       spacingy="1"
       empcolor="#0099e5"
       empopacity="0.30196078"
       color="#0099e5"
       opacity="0.14901961"
       empspacing="4"
       enabled="true"
       visible="true" />
  </sodipodi:namedview>
  <path
     d="m 13.980469,1.988281 c -0.261719,0.00781 -0.507813,0.117188 -0.6875,0.304688 L 12.308594,3.277344 C 11.023438,2.449219 9.527344,2.003906 8,2 4.351562,2.003906 1.167969,4.476562 0.261719,8.011719 c 0.460937,1.746093 1.496093,3.285156 2.941406,4.371093 l -0.910156,0.910157 c -0.261719,0.25 -0.367188,0.625 -0.273438,0.972656 0.089844,0.351563 0.363281,0.625 0.714844,0.714844 0.347656,0.09375 0.722656,-0.01172 0.972656,-0.273438 l 11,-11 C 15.003906,3.417969 15.089844,2.980469 14.929688,2.601562 14.769531,2.21875 14.390625,1.976562 13.980469,1.988281 Z M 8,4 c 0.957031,0 1.886719,0.347656 2.609375,0.976562 L 9.191406,6.394531 C 8.847656,6.136719 8.429688,6 8,6 6.894531,6 6,6.894531 6,8 6,8.429688 6.140625,8.847656 6.394531,9.1875 L 4.976562,10.609375 C 4.347656,9.882812 4.003906,8.957031 4,8 4,5.789062 5.789062,4 8,4 Z m 7.027344,2.207031 -7.75,7.75 c 0,0 0.480468,0.03906 0.722656,0.04297 3.648438,-0.0039 6.832031,-2.476562 7.738281,-6.011719 -0.164062,-0.617187 -0.710937,-1.78125 -0.710937,-1.78125 z"
     fill="#222222"
     id="path1"
     sodipodi:nodetypes="cccccccccccccsccsscccssccccs" />
</svg>
