<?xml version="1.0" encoding="UTF-8"?>
<svg height="16px" viewBox="0 0 16 16" width="16px" xmlns="http://www.w3.org/2000/svg">
    <path d="m 0.996094 2 c -0.550782 0 -0.996094 0.445312 -0.996094 0.996094 v 10.011718 c 0 0.546876 0.445312 0.992188 0.996094 0.992188 h 0.011718 c 0.546876 0 0.992188 -0.445312 0.992188 -0.992188 v -1.007812 h 3.5 c 0.320312 0 0.628906 -0.125 0.855469 -0.351562 l 1.292969 -1.292969 c 0.226562 -0.226563 0.53125 -0.355469 0.851562 -0.355469 h 1 c 0.320312 0 0.628906 0.128906 0.855469 0.355469 l 1.292969 1.292969 c 0.226562 0.226562 0.53125 0.351562 0.851562 0.351562 h 1.5 v 1.007812 c 0 0.546876 0.445312 0.992188 0.996094 0.992188 h 0.011718 c 0.546876 0 0.992188 -0.445312 0.992188 -0.992188 v -10.011718 c 0 -0.550782 -0.445312 -0.996094 -0.992188 -0.996094 h -0.011718 c -0.550782 0 -0.996094 0.445312 -0.996094 0.996094 v 1.003906 h -3.5 c -0.320312 0 -0.625 0.128906 -0.851562 0.355469 l -1.292969 1.292969 c -0.226563 0.226562 -0.535157 0.351562 -0.855469 0.351562 h -1 c -0.320312 0 -0.625 -0.125 -0.851562 -0.351562 l -1.292969 -1.292969 c -0.226563 -0.226563 -0.535157 -0.355469 -0.855469 -0.355469 h -1.5 v -1.003906 c 0 -0.550782 -0.445312 -0.996094 -0.992188 -0.996094 z m 0 0" fill-rule="evenodd"/>
</svg>
