<?xml version="1.0" encoding="UTF-8" standalone="no"?>
<svg
   width="16px"
   height="16px"
   viewBox="0 0 16 16"
   version="1.1"
   id="svg12"
   sodipodi:docname="io.github.nozwock.QuickShare-symbolic.svg"
   inkscape:version="1.4 (e7c3feb100, 2024-10-09)"
   xmlns:inkscape="http://www.inkscape.org/namespaces/inkscape"
   xmlns:sodipodi="http://sodipodi.sourceforge.net/DTD/sodipodi-0.dtd"
   xmlns:xlink="http://www.w3.org/1999/xlink"
   xmlns="http://www.w3.org/2000/svg"
   xmlns:svg="http://www.w3.org/2000/svg">
  <sodipodi:namedview
     id="namedview12"
     pagecolor="#ffffff"
     bordercolor="#000000"
     borderopacity="0.25"
     inkscape:showpageshadow="2"
     inkscape:pageopacity="0.0"
     inkscape:pagecheckerboard="0"
     inkscape:deskcolor="#d1d1d1"
     inkscape:zoom="36.657876"
     inkscape:cx="6.9562132"
     inkscape:cy="6.4242675"
     inkscape:window-width="1920"
     inkscape:window-height="1048"
     inkscape:window-x="0"
     inkscape:window-y="0"
     inkscape:window-maximized="1"
     inkscape:current-layer="svg12" />
  <defs
     id="defs8">
    <filter
       id="alpha"
       filterUnits="objectBoundingBox"
       x="0"
       y="0"
       width="1"
       height="1">
      <feColorMatrix
         type="matrix"
         in="SourceGraphic"
         values="0 0 0 0 1 0 0 0 0 1 0 0 0 0 1 0 0 0 1 0"
         id="feColorMatrix1" />
    </filter>
    <mask
       id="mask0">
      <g
         filter="url(#alpha)"
         id="g1">
        <rect
           x="0"
           y="0"
           width="16"
           height="16"
           style="fill:rgb(0%,0%,0%);fill-opacity:0.1;stroke:none;"
           id="rect1" />
      </g>
    </mask>
    <clipPath
       id="clip1">
      <rect
         x="0"
         y="0"
         width="192"
         height="152"
         id="rect2" />
    </clipPath>
    <g
       id="surface10818"
       clip-path="url(#clip1)">
      <path
         style="fill:none;stroke-width:0.99;stroke-linecap:butt;stroke-linejoin:miter;stroke:rgb(0%,0%,0%);stroke-opacity:1;stroke-dasharray:0.99,0.99;stroke-miterlimit:4;"
         d="M 123.503906 236 C 123.503906 268.863281 96.863281 295.503906 64 295.503906 C 31.136719 295.503906 4.496094 268.863281 4.496094 236 C 4.496094 203.136719 31.136719 176.496094 64 176.496094 C 96.863281 176.496094 123.503906 203.136719 123.503906 236 Z M 123.503906 236 "
         transform="matrix(1,0,0,1,8,-156)"
         id="path2" />
    </g>
    <mask
       id="mask1">
      <g
         filter="url(#alpha)"
         id="g3">
        <rect
           x="0"
           y="0"
           width="16"
           height="16"
           style="fill:rgb(0%,0%,0%);fill-opacity:0.1;stroke:none;"
           id="rect3" />
      </g>
    </mask>
    <clipPath
       id="clip2">
      <rect
         x="0"
         y="0"
         width="192"
         height="152"
         id="rect4" />
    </clipPath>
    <g
       id="surface10821"
       clip-path="url(#clip2)">
      <path
         style="fill:none;stroke-width:0.99;stroke-linecap:butt;stroke-linejoin:miter;stroke:rgb(0%,0%,0%);stroke-opacity:1;stroke-dasharray:0.99,0.99;stroke-miterlimit:4;"
         d="M 29.195312 180.496094 L 98.804688 180.496094 C 103.609375 180.496094 107.503906 184.046875 107.503906 188.425781 L 107.503906 283.574219 C 107.503906 287.953125 103.609375 291.503906 98.804688 291.503906 L 29.195312 291.503906 C 24.390625 291.503906 20.496094 287.953125 20.496094 283.574219 L 20.496094 188.425781 C 20.496094 184.046875 24.390625 180.496094 29.195312 180.496094 Z M 29.195312 180.496094 "
         transform="matrix(1,0,0,1,8,-156)"
         id="path4" />
    </g>
    <mask
       id="mask2">
      <g
         filter="url(#alpha)"
         id="g5">
        <rect
           x="0"
           y="0"
           width="16"
           height="16"
           style="fill:rgb(0%,0%,0%);fill-opacity:0.1;stroke:none;"
           id="rect5" />
      </g>
    </mask>
    <clipPath
       id="clip3">
      <rect
         x="0"
         y="0"
         width="192"
         height="152"
         id="rect6" />
    </clipPath>
    <g
       id="surface10824"
       clip-path="url(#clip3)">
      <path
         style="fill:none;stroke-width:0.99;stroke-linecap:butt;stroke-linejoin:miter;stroke:rgb(0%,0%,0%);stroke-opacity:1;stroke-dasharray:0.99,0.99;stroke-miterlimit:4;"
         d="M 20.417969 184.496094 L 107.582031 184.496094 C 111.957031 184.496094 115.503906 188.042969 115.503906 192.417969 L 115.503906 279.582031 C 115.503906 283.957031 111.957031 287.503906 107.582031 287.503906 L 20.417969 287.503906 C 16.042969 287.503906 12.496094 283.957031 12.496094 279.582031 L 12.496094 192.417969 C 12.496094 188.042969 16.042969 184.496094 20.417969 184.496094 Z M 20.417969 184.496094 "
         transform="matrix(1,0,0,1,8,-156)"
         id="path6" />
    </g>
    <mask
       id="mask3">
      <g
         filter="url(#alpha)"
         id="g7">
        <rect
           x="0"
           y="0"
           width="16"
           height="16"
           style="fill:rgb(0%,0%,0%);fill-opacity:0.1;stroke:none;"
           id="rect7" />
      </g>
    </mask>
    <clipPath
       id="clip4">
      <rect
         x="0"
         y="0"
         width="192"
         height="152"
         id="rect8" />
    </clipPath>
    <g
       id="surface10827"
       clip-path="url(#clip4)">
      <path
         style="fill:none;stroke-width:0.99;stroke-linecap:butt;stroke-linejoin:miter;stroke:rgb(0%,0%,0%);stroke-opacity:1;stroke-dasharray:0.99,0.99;stroke-miterlimit:4;"
         d="M 16.425781 200.496094 L 111.574219 200.496094 C 115.953125 200.496094 119.503906 204.390625 119.503906 209.195312 L 119.503906 278.804688 C 119.503906 283.609375 115.953125 287.503906 111.574219 287.503906 L 16.425781 287.503906 C 12.046875 287.503906 8.496094 283.609375 8.496094 278.804688 L 8.496094 209.195312 C 8.496094 204.390625 12.046875 200.496094 16.425781 200.496094 Z M 16.425781 200.496094 "
         transform="matrix(1,0,0,1,8,-156)"
         id="path8" />
    </g>
    <filter
       style="color-interpolation-filters:sRGB"
       inkscape:label="Drop Shadow"
       id="filter7912"
       x="-0.0079449978"
       y="-0.0078962959"
       width="1.01589"
       height="1.0267597">
      <feFlood
         result="flood"
         in="SourceGraphic"
         flood-opacity="0.498039"
         flood-color="rgb(100,100,100)"
         id="feFlood7911" />
      <feGaussianBlur
         result="blur"
         in="SourceGraphic"
         stdDeviation="0.300000"
         id="feGaussianBlur7911" />
      <feOffset
         result="offset"
         in="blur"
         dx="-0.000000"
         dy="1.000000"
         id="feOffset7911" />
      <feComposite
         result="comp1"
         operator="in"
         in="flood"
         in2="offset"
         id="feComposite7911" />
      <feComposite
         result="comp2"
         operator="over"
         in="SourceGraphic"
         in2="comp1"
         id="feComposite7912" />
    </filter>
  </defs>
  <g
     id="surface10764"
     style="display:none">
    <rect
       x="0"
       y="0"
       width="16"
       height="16"
       style="fill:#f0f0f0;fill-opacity:1;stroke:none"
       id="rect9" />
    <use
       xlink:href="#surface10818"
       transform="translate(-168,-16)"
       mask="url(#mask0)"
       id="use9" />
    <use
       xlink:href="#surface10821"
       transform="translate(-168,-16)"
       mask="url(#mask1)"
       id="use10" />
    <use
       xlink:href="#surface10824"
       transform="translate(-168,-16)"
       mask="url(#mask2)"
       id="use11" />
    <use
       xlink:href="#surface10827"
       transform="translate(-168,-16)"
       mask="url(#mask3)"
       id="use12" />
  </g>
  <path
     style="display:inline;fill:#000000;fill-opacity:1;stroke-width:0.832734"
     d="M 5.599847,15.615715 C 3.0805196,14.715432 1.1729126,12.82992 0.44722808,10.522781 -0.12211888,8.7126794 -0.02896512,8.1225816 0.82612825,8.1225816 c 0.55628875,0 0.70993435,0.2049123 1.06225255,1.4166929 1.3019756,4.4780875 6.7049603,6.2568055 10.1217282,3.3321755 0.603017,-0.516155 1.276199,-1.286173 1.49596,-1.711146 l 0.399567,-0.772682 H 12.01551 c -1.77041,0 -1.879388,0.03383 -1.72056,0.534263 0.115139,0.362789 0.02746,0.5888 -0.273226,0.704182 C 9.7198349,11.741911 9.2276477,11.444699 8.4750364,10.692089 L 7.3711434,9.5881963 8.4750364,8.4843032 c 0.7526113,-0.7526102 1.2447985,-1.049821 1.5466876,-0.933976 0.297393,0.1141222 0.388101,0.3422371 0.276238,0.6946929 -0.157346,0.4957501 -0.0146,0.5289863 2.579761,0.6008814 l 2.74632,0.076104 0.08221,0.7109078 C 15.82077,10.623329 14.668652,12.770147 13.414568,13.903138 11.422054,15.70326 7.9649326,16.460873 5.5998519,15.615711 Z M 5.7793155,8.2798664 C 5.6969083,8.1465313 5.7010052,7.8510656 5.7884173,7.6232746 5.9247567,7.2679807 5.5555794,7.1982774 3.1911473,7.132896 0.53446297,7.0594323 0.43177658,7.0342909 0.34710476,6.4365768 0.21018003,5.4699932 1.5421334,3.0525476 2.8420831,1.9082869 6.5677729,-1.3711967 12.863483,-0.17359321 15.071867,4.2347022 15.794588,5.6773569 16.10627,7.1788491 15.787563,7.6824697 15.416231,8.2692537 14.587835,7.9126362 14.327892,7.054092 13.788969,5.274134 13.481747,4.6464846 12.73073,3.7911264 10.521968,1.2754845 6.5540295,0.96292098 4.0488783,3.1072377 3.4458638,3.6233951 2.7726831,4.3934125 2.55292,4.8183864 L 2.1533521,5.5910666 h 1.8901267 c 1.7704094,0 1.8793871,-0.033843 1.7205592,-0.5342631 C 5.6488933,4.6940147 5.7365912,4.4680048 6.0372647,4.3526235 6.3390272,4.2368264 6.8302669,4.5329138 7.5795921,5.2822392 L 8.6791238,6.3817703 7.6340405,7.4520326 C 6.5989937,8.5120165 6.0689943,8.7485762 5.7793155,8.2798664 Z"
     id="path7903"
     inkscape:label="cyclic arrows" />
</svg>
