<?xml version="1.0" encoding="UTF-8"?>
<svg height="128px" viewBox="0 0 128 128" width="128px" xmlns="http://www.w3.org/2000/svg" xmlns:xlink="http://www.w3.org/1999/xlink">
    <filter id="a" height="100%" width="100%" x="0%" y="0%">
        <feColorMatrix color-interpolation-filters="sRGB" values="0 0 0 0 1 0 0 0 0 1 0 0 0 0 1 0 0 0 1 0"/>
    </filter>
    <linearGradient id="b" gradientUnits="userSpaceOnUse">
        <stop offset="0" stop-color="#57e389"/>
        <stop offset="1" stop-color="#33d17a"/>
    </linearGradient>
    <linearGradient id="c" gradientTransform="matrix(-0.529412 0 0 1.5 93.647072 -23.000015)" x1="56" x2="90" xlink:href="#b" y1="40" y2="40"/>
    <linearGradient id="d" gradientUnits="userSpaceOnUse" x1="30" x2="98" y1="71.999985" y2="71.999985">
        <stop offset="0" stop-color="#2ec27e"/>
        <stop offset="0.264706" stop-color="#57e389"/>
        <stop offset="0.75" stop-color="#8ff0a4"/>
        <stop offset="1" stop-color="#2ec27e"/>
    </linearGradient>
    <linearGradient id="e" gradientUnits="userSpaceOnUse">
        <stop offset="0" stop-color="#c0bfbc"/>
        <stop offset="0.35" stop-color="#deddda"/>
        <stop offset="0.6" stop-color="#deddda"/>
        <stop offset="1" stop-color="#77767b"/>
    </linearGradient>
    <linearGradient id="f" x1="18" x2="18" xlink:href="#e" y1="27.999985" y2="115.999985"/>
    <linearGradient id="g" gradientUnits="userSpaceOnUse">
        <stop offset="0" stop-color="#33d17a"/>
        <stop offset="1" stop-color="#2ec27e" stop-opacity="0"/>
    </linearGradient>
    <linearGradient id="h" gradientTransform="matrix(-1 0 0 1 0.000298 0.00029)" x1="-50" x2="-26" xlink:href="#g" y1="51" y2="51"/>
    <linearGradient id="i" gradientTransform="matrix(-0.647059 0 0 1.5 138.235291 20.999985)" gradientUnits="userSpaceOnUse" x1="56" x2="90" y1="40" y2="40">
        <stop offset="0" stop-color="#2ec27e"/>
        <stop offset="1" stop-color="#33d17a"/>
    </linearGradient>
    <linearGradient id="j" gradientTransform="matrix(-1.176471 0 0 1.5 131.88266 37.00029)" x1="56" x2="90" xlink:href="#g" y1="40" y2="40"/>
    <linearGradient id="k" gradientUnits="userSpaceOnUse">
        <stop offset="0" stop-color="#2ec27e" stop-opacity="0"/>
        <stop offset="1" stop-color="#33d17a"/>
    </linearGradient>
    <linearGradient id="l" gradientTransform="matrix(0.705882 0 0 1.609237 -1.529129 8.849274)" x1="56" x2="90" xlink:href="#k" y1="40" y2="40"/>
    <linearGradient id="m" gradientTransform="matrix(-0.882353 0 0 1.5 151.411774 -1.000015)" x1="56" x2="90" xlink:href="#k" y1="40" y2="40"/>
    <linearGradient id="n" gradientTransform="matrix(0.352941 0 0 1.5 52.235291 46.999985)" x1="56" x2="90" xlink:href="#b" y1="40" y2="40"/>
    <linearGradient id="o" gradientUnits="userSpaceOnUse">
        <stop offset="0" stop-color="#5e5c64"/>
        <stop offset="0.5" stop-color="#9a9996"/>
        <stop offset="0.9999" stop-color="#5e5c64"/>
    </linearGradient>
    <linearGradient id="p" x1="28" x2="28" xlink:href="#o" y1="35.999985" y2="107.999985"/>
    <linearGradient id="q" gradientTransform="matrix(-1 0 0 1 128 -0.000015)" x1="28" x2="28" xlink:href="#o" y1="36" y2="108"/>
    <linearGradient id="r" x1="112" x2="112" xlink:href="#e" y1="27.999985" y2="115.999985"/>
    <clipPath id="s">
        <rect height="128" width="128"/>
    </clipPath>
    <clipPath id="t">
        <rect height="128" width="128"/>
    </clipPath>
    <mask id="u">
        <g filter="url(#a)">
            <g clip-path="url(#t)" filter="url(#a)">
                <g clip-path="url(#s)">
                    <path d="m 17 112 c 1.65625 0 3 1.34375 3 3 v 2 c 0 1.65625 -1.34375 3 -3 3 s -3 -1.34375 -3 -3 v -2 c 0 -1.65625 1.34375 -3 3 -3 z m 0 0" fill="#9a9996" fill-rule="evenodd"/>
                    <path d="m 61 34 h -12 c -1.65625 0 -3 1.34375 -3 3 s 1.34375 3 3 3 h 12 c 1.65625 0 3 -1.34375 3 -3 s -1.34375 -3 -3 -3 z m 0 0" fill="url(#c)" fill-rule="evenodd"/>
                    <path d="m 17 24 c 1.65625 0 3 1.34375 3 3 v 2 c 0 1.65625 -1.34375 3 -3 3 s -3 -1.34375 -3 -3 v -2 c 0 -1.65625 1.34375 -3 3 -3 z m 0 0" fill="#9a9996" fill-rule="evenodd"/>
                    <path d="m 111 24 c 1.65625 0 3 1.34375 3 3 v 2 c 0 1.65625 -1.34375 3 -3 3 s -3 -1.34375 -3 -3 v -2 c 0 -1.65625 1.34375 -3 3 -3 z m 0 0" fill="#9a9996" fill-rule="evenodd"/>
                    <path d="m 30 40 h 10 c 1.28125 0 2.507812 0.507812 3.414062 1.414062 l 1.171876 1.171876 c 0.90625 0.90625 2.132812 1.414062 3.414062 1.414062 h 14 c 1.28125 0 2.507812 -0.507812 3.414062 -1.414062 l 1.171876 -1.171876 c 0.90625 -0.90625 2.132812 -1.414062 3.414062 -1.414062 h 6 c 1.304688 0 2.578125 -0.386719 3.664062 -1.109375 l 2.671876 -1.78125 c 1.085937 -0.722656 2.359374 -1.109375 3.664062 -1.109375 h 2 c 1.304688 0 2.578125 0.386719 3.664062 1.109375 l 2.671876 1.78125 c 1.085937 0.722656 2.359374 1.109375 3.664062 1.109375 v 64 h -7.171875 c -1.8125 0 -3.546875 -0.71875 -4.828125 -2 s -3.015625 -2 -4.828125 -2 h -6.34375 c -1.8125 0 -3.546875 0.71875 -4.828125 2 s -3.015625 2 -4.828125 2 h -6.398437 c -1.808594 0 -3.578126 0.535156 -5.082032 1.539062 l -2.027344 1.351563 c -1.085937 0.722656 -2.359374 1.109375 -3.664062 1.109375 h -2 c -1.304688 0 -2.578125 -0.386719 -3.664062 -1.109375 l -2.027344 -1.351563 c -1.503906 -1.003906 -3.273438 -1.539062 -5.082032 -1.539062 h -5.226562 z m 0 0" fill="url(#d)" fill-rule="evenodd"/>
                    <path d="m 17 28 c 4.984375 0 9 4.015625 9 9 v 70 c 0 4.984375 -4.015625 9 -9 9 s -9 -4.015625 -9 -9 v -70 c 0 -4.984375 4.015625 -9 9 -9 z m 0 0" fill="url(#f)" fill-rule="evenodd"/>
                    <path d="m 47 48 h -18 c -1.65625 0 -3 1.34375 -3 3 s 1.34375 3 3 3 h 18 c 1.65625 0 3 -1.34375 3 -3 s -1.34375 -3 -3 -3 z m 0 0" fill="url(#h)" fill-rule="evenodd"/>
                    <path d="m 99 78 h -16 c -1.65625 0 -3 1.34375 -3 3 s 1.34375 3 3 3 h 16 c 1.65625 0 3 -1.34375 3 -3 s -1.34375 -3 -3 -3 z m 0 0" fill="url(#i)" fill-rule="evenodd"/>
                    <path d="m 63 94 h -34 c -1.65625 0 -3 1.34375 -3 3 s 1.34375 3 3 3 h 34 c 1.65625 0 3 -1.34375 3 -3 s -1.34375 -3 -3 -3 z m 0 0" fill="url(#j)" fill-rule="evenodd"/>
                    <path d="m 41 70 h 18 c 1.65625 0 3 1.34375 3 3 v 0.4375 c 0 1.65625 -1.34375 3 -3 3 h -18 c -1.65625 0 -3 -1.34375 -3 -3 v -0.4375 c 0 -1.65625 1.34375 -3 3 -3 z m 0 0" fill="url(#l)" fill-rule="evenodd"/>
                    <path d="m 99 56 h -24 c -1.65625 0 -3 1.34375 -3 3 s 1.34375 3 3 3 h 24 c 1.65625 0 3 -1.34375 3 -3 s -1.34375 -3 -3 -3 z m 0 0" fill="url(#m)" fill-rule="evenodd"/>
                    <path d="m 111 112 c 1.65625 0 3 1.34375 3 3 v 2 c 0 1.65625 -1.34375 3 -3 3 s -3 -1.34375 -3 -3 v -2 c 0 -1.65625 1.34375 -3 3 -3 z m 0 0" fill="#9a9996" fill-rule="evenodd"/>
                    <path d="m 75 104 h 6 c 1.65625 0 3 1.34375 3 3 s -1.34375 3 -3 3 h -6 c -1.65625 0 -3 -1.34375 -3 -3 s 1.34375 -3 3 -3 z m 0 0" fill="url(#n)" fill-rule="evenodd"/>
                    <path d="m 26 36 l 4 4 v 64 l -4 4 z m 0 0" fill="url(#p)" fill-rule="evenodd"/>
                    <path d="m 43 58 c -0.554688 0 -1 0.445312 -1 1 v 1 h -1 c -0.554688 0 -1 0.445312 -1 1 s 0.445312 1 1 1 h 1 v 5 c 0 0.554688 0.445312 1 1 1 s 1 -0.445312 1 -1 v -8 c 0 -0.554688 -0.445312 -1 -1 -1 z m 0 0" fill="#2ec27e" fill-rule="evenodd"/>
                    <path d="m 73 67.5 c -0.554688 0 -1 0.445312 -1 1 v 1 h -1 c -0.554688 0 -1 0.445312 -1 1 s 0.445312 1 1 1 h 1 v 5 c 0 0.554688 0.445312 1 1 1 s 1 -0.445312 1 -1 v -8 c 0 -0.554688 -0.445312 -1 -1 -1 z m 0 0" fill="#2ec27e" fill-rule="evenodd"/>
                    <path d="m 53 80 c -1.660156 0 -3 1.339844 -3 3 v 4 c 0 1.664062 1.339844 3 3 3 c 1.664062 0 3 -1.335938 3 -3 v -4 c 0 -1.660156 -1.335938 -3 -3 -3 z m 0 2 c 0.554688 0 1 0.445312 1 1 v 4 c 0 0.554688 -0.445312 1 -1 1 s -1 -0.445312 -1 -1 v -4 c 0 -0.554688 0.445312 -1 1 -1 z m 0 0" fill="#2ec27e" fill-rule="evenodd"/>
                    <path d="m 87 42 c -0.554688 0 -1 0.445312 -1 1 v 1 h -1 c -0.554688 0 -1 0.445312 -1 1 s 0.445312 1 1 1 h 1 v 5 c 0 0.554688 0.445312 1 1 1 s 1 -0.445312 1 -1 v -8 c 0 -0.554688 -0.445312 -1 -1 -1 z m 0 0" fill="#2ec27e" fill-rule="evenodd"/>
                    <path d="m 75 86 c -1.660156 0 -3 1.339844 -3 3 v 4 c 0 1.664062 1.339844 3 3 3 c 1.664062 0 3 -1.335938 3 -3 v -4 c 0 -1.660156 -1.335938 -3 -3 -3 z m 0 2 c 0.554688 0 1 0.445312 1 1 v 4 c 0 0.554688 -0.445312 1 -1 1 s -1 -0.445312 -1 -1 v -4 c 0 -0.554688 0.445312 -1 1 -1 z m 0 0" fill="#2ec27e" fill-rule="evenodd"/>
                    <path d="m 102 36 l -4 4 v 64 l 4 4 z m 0 0" fill="url(#q)" fill-rule="evenodd"/>
                    <path d="m 111 28 c 4.984375 0 9 4.015625 9 9 v 70 c 0 4.984375 -4.015625 9 -9 9 s -9 -4.015625 -9 -9 v -70 c 0 -4.984375 4.015625 -9 9 -9 z m 0 0" fill="url(#r)" fill-rule="evenodd"/>
                    <path d="m 93 88 c -0.554688 0 -1 0.445312 -1 1 v 1 h -1 c -0.554688 0 -1 0.445312 -1 1 s 0.445312 1 1 1 h 1 v 5 c 0 0.554688 0.445312 1 1 1 s 1 -0.445312 1 -1 v -8 c 0 -0.554688 -0.445312 -1 -1 -1 z m 0 0" fill="#2ec27e" fill-rule="evenodd"/>
                    <path d="m 61 52 c -1.660156 0 -3 1.339844 -3 3 v 4 c 0 1.664062 1.339844 3 3 3 c 1.664062 0 3 -1.335938 3 -3 v -4 c 0 -1.660156 -1.335938 -3 -3 -3 z m 0 2 c 0.554688 0 1 0.445312 1 1 v 4 c 0 0.554688 -0.445312 1 -1 1 s -1 -0.445312 -1 -1 v -4 c 0 -0.554688 0.445312 -1 1 -1 z m 0 0" fill="#2ec27e" fill-rule="evenodd"/>
                    <path d="m 22 72 c 0 2.761719 -2.238281 5 -5 5 s -5 -2.238281 -5 -5 s 2.238281 -5 5 -5 s 5 2.238281 5 5 z m 0 0" fill="#f6f5f4" fill-rule="evenodd"/>
                    <path d="m 20 72 c 0 1.65625 -1.34375 3 -3 3 s -3 -1.34375 -3 -3 s 1.34375 -3 3 -3 s 3 1.34375 3 3 z m 0 0" fill="#33d17a" fill-rule="evenodd"/>
                    <path d="m 116 72 c 0 2.761719 -2.238281 5 -5 5 s -5 -2.238281 -5 -5 s 2.238281 -5 5 -5 s 5 2.238281 5 5 z m 0 0" fill="#f6f5f4" fill-rule="evenodd"/>
                    <path d="m 114 72 c 0 1.65625 -1.34375 3 -3 3 s -3 -1.34375 -3 -3 s 1.34375 -3 3 -3 s 3 1.34375 3 3 z m 0 0" fill="#989898" fill-rule="evenodd"/>
                </g>
            </g>
        </g>
    </mask>
    <mask id="v">
        <g filter="url(#a)">
            <rect fill-opacity="0.8" height="184.32" width="184.32" x="-28.16" y="-28.16"/>
        </g>
    </mask>
    <linearGradient id="w" gradientTransform="matrix(0 0.37 -0.98462 0 295.38501 -30.360001)" gradientUnits="userSpaceOnUse" x1="300" x2="428" y1="235" y2="235">
        <stop offset="0" stop-color="#f9f06b"/>
        <stop offset="1" stop-color="#f5c211"/>
    </linearGradient>
    <clipPath id="x">
        <rect height="128" width="128"/>
    </clipPath>
    <clipPath id="y">
        <rect height="128" width="128"/>
    </clipPath>
    <g fill-rule="evenodd">
        <path d="m 17 112 c 1.65625 0 3 1.34375 3 3 v 2 c 0 1.65625 -1.34375 3 -3 3 s -3 -1.34375 -3 -3 v -2 c 0 -1.65625 1.34375 -3 3 -3 z m 0 0" fill="#9a9996"/>
        <path d="m 61 34 h -12 c -1.65625 0 -3 1.34375 -3 3 s 1.34375 3 3 3 h 12 c 1.65625 0 3 -1.34375 3 -3 s -1.34375 -3 -3 -3 z m 0 0" fill="url(#c)"/>
        <path d="m 17 24 c 1.65625 0 3 1.34375 3 3 v 2 c 0 1.65625 -1.34375 3 -3 3 s -3 -1.34375 -3 -3 v -2 c 0 -1.65625 1.34375 -3 3 -3 z m 0 0" fill="#9a9996"/>
        <path d="m 111 24 c 1.65625 0 3 1.34375 3 3 v 2 c 0 1.65625 -1.34375 3 -3 3 s -3 -1.34375 -3 -3 v -2 c 0 -1.65625 1.34375 -3 3 -3 z m 0 0" fill="#9a9996"/>
        <path d="m 30 40 h 10 c 1.28125 0 2.507812 0.507812 3.414062 1.414062 l 1.171876 1.171876 c 0.90625 0.90625 2.132812 1.414062 3.414062 1.414062 h 14 c 1.28125 0 2.507812 -0.507812 3.414062 -1.414062 l 1.171876 -1.171876 c 0.90625 -0.90625 2.132812 -1.414062 3.414062 -1.414062 h 6 c 1.304688 0 2.578125 -0.386719 3.664062 -1.109375 l 2.671876 -1.78125 c 1.085937 -0.722656 2.359374 -1.109375 3.664062 -1.109375 h 2 c 1.304688 0 2.578125 0.386719 3.664062 1.109375 l 2.671876 1.78125 c 1.085937 0.722656 2.359374 1.109375 3.664062 1.109375 v 64 h -7.171875 c -1.8125 0 -3.546875 -0.71875 -4.828125 -2 s -3.015625 -2 -4.828125 -2 h -6.34375 c -1.8125 0 -3.546875 0.71875 -4.828125 2 s -3.015625 2 -4.828125 2 h -6.398437 c -1.808594 0 -3.578126 0.535156 -5.082032 1.539062 l -2.027344 1.351563 c -1.085937 0.722656 -2.359374 1.109375 -3.664062 1.109375 h -2 c -1.304688 0 -2.578125 -0.386719 -3.664062 -1.109375 l -2.027344 -1.351563 c -1.503906 -1.003906 -3.273438 -1.539062 -5.082032 -1.539062 h -5.226562 z m 0 0" fill="url(#d)"/>
        <path d="m 17 28 c 4.984375 0 9 4.015625 9 9 v 70 c 0 4.984375 -4.015625 9 -9 9 s -9 -4.015625 -9 -9 v -70 c 0 -4.984375 4.015625 -9 9 -9 z m 0 0" fill="url(#f)"/>
        <path d="m 47 48 h -18 c -1.65625 0 -3 1.34375 -3 3 s 1.34375 3 3 3 h 18 c 1.65625 0 3 -1.34375 3 -3 s -1.34375 -3 -3 -3 z m 0 0" fill="url(#h)"/>
        <path d="m 99 78 h -16 c -1.65625 0 -3 1.34375 -3 3 s 1.34375 3 3 3 h 16 c 1.65625 0 3 -1.34375 3 -3 s -1.34375 -3 -3 -3 z m 0 0" fill="url(#i)"/>
        <path d="m 63 94 h -34 c -1.65625 0 -3 1.34375 -3 3 s 1.34375 3 3 3 h 34 c 1.65625 0 3 -1.34375 3 -3 s -1.34375 -3 -3 -3 z m 0 0" fill="url(#j)"/>
        <path d="m 41 70 h 18 c 1.65625 0 3 1.34375 3 3 v 0.4375 c 0 1.65625 -1.34375 3 -3 3 h -18 c -1.65625 0 -3 -1.34375 -3 -3 v -0.4375 c 0 -1.65625 1.34375 -3 3 -3 z m 0 0" fill="url(#l)"/>
        <path d="m 99 56 h -24 c -1.65625 0 -3 1.34375 -3 3 s 1.34375 3 3 3 h 24 c 1.65625 0 3 -1.34375 3 -3 s -1.34375 -3 -3 -3 z m 0 0" fill="url(#m)"/>
        <path d="m 111 112 c 1.65625 0 3 1.34375 3 3 v 2 c 0 1.65625 -1.34375 3 -3 3 s -3 -1.34375 -3 -3 v -2 c 0 -1.65625 1.34375 -3 3 -3 z m 0 0" fill="#9a9996"/>
        <path d="m 75 104 h 6 c 1.65625 0 3 1.34375 3 3 s -1.34375 3 -3 3 h -6 c -1.65625 0 -3 -1.34375 -3 -3 s 1.34375 -3 3 -3 z m 0 0" fill="url(#n)"/>
        <path d="m 26 36 l 4 4 v 64 l -4 4 z m 0 0" fill="url(#p)"/>
        <path d="m 43 58 c -0.554688 0 -1 0.445312 -1 1 v 1 h -1 c -0.554688 0 -1 0.445312 -1 1 s 0.445312 1 1 1 h 1 v 5 c 0 0.554688 0.445312 1 1 1 s 1 -0.445312 1 -1 v -8 c 0 -0.554688 -0.445312 -1 -1 -1 z m 0 0" fill="#2ec27e"/>
        <path d="m 73 67.5 c -0.554688 0 -1 0.445312 -1 1 v 1 h -1 c -0.554688 0 -1 0.445312 -1 1 s 0.445312 1 1 1 h 1 v 5 c 0 0.554688 0.445312 1 1 1 s 1 -0.445312 1 -1 v -8 c 0 -0.554688 -0.445312 -1 -1 -1 z m 0 0" fill="#2ec27e"/>
        <path d="m 53 80 c -1.660156 0 -3 1.339844 -3 3 v 4 c 0 1.664062 1.339844 3 3 3 c 1.664062 0 3 -1.335938 3 -3 v -4 c 0 -1.660156 -1.335938 -3 -3 -3 z m 0 2 c 0.554688 0 1 0.445312 1 1 v 4 c 0 0.554688 -0.445312 1 -1 1 s -1 -0.445312 -1 -1 v -4 c 0 -0.554688 0.445312 -1 1 -1 z m 0 0" fill="#2ec27e"/>
        <path d="m 87 42 c -0.554688 0 -1 0.445312 -1 1 v 1 h -1 c -0.554688 0 -1 0.445312 -1 1 s 0.445312 1 1 1 h 1 v 5 c 0 0.554688 0.445312 1 1 1 s 1 -0.445312 1 -1 v -8 c 0 -0.554688 -0.445312 -1 -1 -1 z m 0 0" fill="#2ec27e"/>
        <path d="m 75 86 c -1.660156 0 -3 1.339844 -3 3 v 4 c 0 1.664062 1.339844 3 3 3 c 1.664062 0 3 -1.335938 3 -3 v -4 c 0 -1.660156 -1.335938 -3 -3 -3 z m 0 2 c 0.554688 0 1 0.445312 1 1 v 4 c 0 0.554688 -0.445312 1 -1 1 s -1 -0.445312 -1 -1 v -4 c 0 -0.554688 0.445312 -1 1 -1 z m 0 0" fill="#2ec27e"/>
        <path d="m 102 36 l -4 4 v 64 l 4 4 z m 0 0" fill="url(#q)"/>
        <path d="m 111 28 c 4.984375 0 9 4.015625 9 9 v 70 c 0 4.984375 -4.015625 9 -9 9 s -9 -4.015625 -9 -9 v -70 c 0 -4.984375 4.015625 -9 9 -9 z m 0 0" fill="url(#r)"/>
        <path d="m 93 88 c -0.554688 0 -1 0.445312 -1 1 v 1 h -1 c -0.554688 0 -1 0.445312 -1 1 s 0.445312 1 1 1 h 1 v 5 c 0 0.554688 0.445312 1 1 1 s 1 -0.445312 1 -1 v -8 c 0 -0.554688 -0.445312 -1 -1 -1 z m 0 0" fill="#2ec27e"/>
        <path d="m 61 52 c -1.660156 0 -3 1.339844 -3 3 v 4 c 0 1.664062 1.339844 3 3 3 c 1.664062 0 3 -1.335938 3 -3 v -4 c 0 -1.660156 -1.335938 -3 -3 -3 z m 0 2 c 0.554688 0 1 0.445312 1 1 v 4 c 0 0.554688 -0.445312 1 -1 1 s -1 -0.445312 -1 -1 v -4 c 0 -0.554688 0.445312 -1 1 -1 z m 0 0" fill="#2ec27e"/>
        <path d="m 22 72 c 0 2.761719 -2.238281 5 -5 5 s -5 -2.238281 -5 -5 s 2.238281 -5 5 -5 s 5 2.238281 5 5 z m 0 0" fill="#f6f5f4"/>
        <path d="m 20 72 c 0 1.65625 -1.34375 3 -3 3 s -3 -1.34375 -3 -3 s 1.34375 -3 3 -3 s 3 1.34375 3 3 z m 0 0" fill="#33d17a"/>
        <path d="m 116 72 c 0 2.761719 -2.238281 5 -5 5 s -5 -2.238281 -5 -5 s 2.238281 -5 5 -5 s 5 2.238281 5 5 z m 0 0" fill="#f6f5f4"/>
        <path d="m 114 72 c 0 1.65625 -1.34375 3 -3 3 s -3 -1.34375 -3 -3 s 1.34375 -3 3 -3 s 3 1.34375 3 3 z m 0 0" fill="#989898"/>
    </g>
    <g mask="url(#u)">
        <g clip-path="url(#y)">
            <g mask="url(#v)">
                <g clip-path="url(#x)">
                    <path d="m 128 80.640625 v 47.359375 h -128 v -47.359375 z m 0 0" fill="url(#w)"/>
                    <path d="m 13.308594 80.640625 l 47.355468 47.359375 h 21.214844 l -47.359375 -47.359375 z m 42.421875 0 l 47.363281 47.359375 h 21.214844 l -47.363282 -47.359375 z m 42.429687 0 l 29.839844 29.839844 v -21.210938 l -8.628906 -8.628906 z m -98.160156 7.90625 v 21.214844 l 18.238281 18.238281 h 21.214844 z m 0 0"/>
                </g>
            </g>
        </g>
    </g>
</svg>
