<?xml version="1.0" encoding="UTF-8" standalone="no"?>
<!-- Created with Inkscape (http://www.inkscape.org/) -->

<svg
   inkscape:export-ydpi="96"
   inkscape:export-xdpi="96"
   inkscape:export-filename="Template.png"
   width="192"
   height="152"
   id="svg11300"
   sodipodi:version="0.32"
   inkscape:version="1.4.2 (ebf0e940d0, 2025-05-08)"
   sodipodi:docname="io.github.nozwock.Packet.Source(1).svg"
   inkscape:output_extension="org.inkscape.output.svg.inkscape"
   version="1.0"
   style="display:inline;enable-background:new"
   viewBox="0 0 192 152"
   xml:space="preserve"
   xmlns:inkscape="http://www.inkscape.org/namespaces/inkscape"
   xmlns:sodipodi="http://sodipodi.sourceforge.net/DTD/sodipodi-0.dtd"
   xmlns:xlink="http://www.w3.org/1999/xlink"
   xmlns="http://www.w3.org/2000/svg"
   xmlns:svg="http://www.w3.org/2000/svg"
   xmlns:rdf="http://www.w3.org/1999/02/22-rdf-syntax-ns#"
   xmlns:cc="http://creativecommons.org/ns#"
   xmlns:dc="http://purl.org/dc/elements/1.1/"><title
     id="title4162">Adwaita Icon Template</title><defs
     id="defs3"><linearGradient
       id="linearGradient4"
       inkscape:collect="always"><stop
         style="stop-color:#c0bfbc;stop-opacity:1"
         offset="0"
         id="stop1" /><stop
         style="stop-color:#deddda;stop-opacity:1"
         offset="0.34999999"
         id="stop2" /><stop
         style="stop-color:#deddda;stop-opacity:1"
         offset="0.60000002"
         id="stop3" /><stop
         style="stop-color:#77767b;stop-opacity:1"
         offset="1"
         id="stop4" /></linearGradient><linearGradient
       inkscape:collect="always"
       xlink:href="#linearGradient4"
       id="linearGradient23"
       x1="111"
       y1="28"
       x2="111"
       y2="116"
       gradientUnits="userSpaceOnUse" /><linearGradient
       inkscape:collect="always"
       xlink:href="#linearGradient18"
       id="linearGradient28"
       gradientUnits="userSpaceOnUse"
       gradientTransform="translate(4e-6)"
       x1="30"
       y1="72"
       x2="98"
       y2="72" /><linearGradient
       id="linearGradient18"
       inkscape:collect="always"><stop
         style="stop-color:#57e389;stop-opacity:1"
         offset="0"
         id="stop28" /><stop
         style="stop-color:#8ff0a4;stop-opacity:0;"
         offset="0.2"
         id="stop31" /><stop
         style="stop-color:#8ff0a4;stop-opacity:0;"
         offset="0.80000001"
         id="stop32" /><stop
         style="stop-color:#57e389;stop-opacity:1"
         offset="1"
         id="stop33" /></linearGradient><linearGradient
       id="linearGradient22"
       inkscape:collect="always"><stop
         style="stop-color:#57e389;stop-opacity:1"
         offset="0.2647059"
         id="stop10" /><stop
         style="stop-color:#8ff0a4;stop-opacity:1"
         offset="0.47222221"
         id="stop16" /><stop
         style="stop-color:#57e389;stop-opacity:1"
         offset="1"
         id="stop22" /></linearGradient><linearGradient
       inkscape:collect="always"
       xlink:href="#linearGradient15"
       id="linearGradient37"
       gradientUnits="userSpaceOnUse"
       gradientTransform="matrix(0.52941178,0,0,1.5,-93.646771,-23.00031)"
       x1="56"
       y1="40"
       x2="90"
       y2="40" /><linearGradient
       id="linearGradient15"
       inkscape:collect="always"><stop
         style="stop-color:#57e389;stop-opacity:1"
         offset="0"
         id="stop14" /><stop
         style="stop-color:#33d17a;stop-opacity:1"
         offset="1"
         id="stop15" /></linearGradient><linearGradient
       inkscape:collect="always"
       xlink:href="#linearGradient22"
       id="linearGradient19"
       x1="88.000298"
       y1="36.000309"
       x2="88.000298"
       y2="108.00031"
       gradientUnits="userSpaceOnUse"
       gradientTransform="translate(-2.98e-4,-3.1e-4)" /><linearGradient
       inkscape:collect="always"
       xlink:href="#linearGradient4"
       id="linearGradient7"
       x1="18"
       y1="28"
       x2="18"
       y2="116"
       gradientUnits="userSpaceOnUse"
       gradientTransform="translate(-2.98e-4,-3.1e-4)" /><linearGradient
       inkscape:collect="always"
       xlink:href="#linearGradient12"
       id="linearGradient13"
       x1="-50"
       y1="51"
       x2="-26"
       y2="51"
       gradientUnits="userSpaceOnUse" /><linearGradient
       id="linearGradient12"
       inkscape:collect="always"><stop
         style="stop-color:#33d17a;stop-opacity:1"
         offset="0"
         id="stop12" /><stop
         style="stop-color:#2ec27e;stop-opacity:0;"
         offset="1"
         id="stop13" /></linearGradient><linearGradient
       inkscape:collect="always"
       xlink:href="#linearGradient30"
       id="linearGradient29"
       gradientUnits="userSpaceOnUse"
       gradientTransform="matrix(0.64705881,0,0,1.5,-138.23499,20.99969)"
       x1="56"
       y1="40"
       x2="90"
       y2="40" /><linearGradient
       id="linearGradient30"
       inkscape:collect="always"><stop
         style="stop-color:#2ec27e;stop-opacity:1"
         offset="0"
         id="stop29" /><stop
         style="stop-color:#33d17a;stop-opacity:1"
         offset="1"
         id="stop30" /></linearGradient><linearGradient
       inkscape:collect="always"
       xlink:href="#linearGradient12"
       id="linearGradient31"
       gradientUnits="userSpaceOnUse"
       gradientTransform="matrix(1.1764706,0,0,1.5,-131.88236,37)"
       x1="56"
       y1="40"
       x2="90"
       y2="40" /><linearGradient
       inkscape:collect="always"
       xlink:href="#linearGradient46"
       id="linearGradient33"
       gradientUnits="userSpaceOnUse"
       gradientTransform="matrix(0.70588238,0,0,1.6092373,-1.529427,8.84898)"
       x1="56"
       y1="40"
       x2="90"
       y2="40" /><linearGradient
       id="linearGradient46"
       inkscape:collect="always"><stop
         style="stop-color:#2ec27e;stop-opacity:0;"
         offset="0"
         id="stop45" /><stop
         style="stop-color:#33d17a;stop-opacity:1"
         offset="1"
         id="stop46" /></linearGradient><linearGradient
       inkscape:collect="always"
       xlink:href="#linearGradient46"
       id="linearGradient34"
       gradientUnits="userSpaceOnUse"
       gradientTransform="matrix(0.88235302,0,0,1.5,-151.41148,-1.00031)"
       x1="56"
       y1="40"
       x2="90"
       y2="40" /><linearGradient
       inkscape:collect="always"
       xlink:href="#linearGradient15"
       id="linearGradient42"
       gradientUnits="userSpaceOnUse"
       gradientTransform="matrix(0.35294118,0,0,1.5,52.234992,46.99969)"
       x1="56"
       y1="40"
       x2="90"
       y2="40" /><linearGradient
       inkscape:collect="always"
       xlink:href="#linearGradient25"
       id="linearGradient11"
       x1="28"
       y1="36"
       x2="28"
       y2="108"
       gradientUnits="userSpaceOnUse"
       gradientTransform="translate(-2.98e-4,-3.1e-4)" /><linearGradient
       id="linearGradient25"
       inkscape:collect="always"><stop
         style="stop-color:#5e5c64;stop-opacity:1"
         offset="0"
         id="stop11" /><stop
         style="stop-color:#9a9996;stop-opacity:1"
         offset="0.5"
         id="stop17" /><stop
         style="stop-color:#5e5c64;stop-opacity:1"
         offset="0.99989998"
         id="stop25" /></linearGradient><linearGradient
       inkscape:collect="always"
       xlink:href="#linearGradient25"
       id="linearGradient8"
       gradientUnits="userSpaceOnUse"
       gradientTransform="matrix(-1,0,0,1,128,0)"
       x1="28"
       y1="36"
       x2="28"
       y2="108" /></defs><sodipodi:namedview
     stroke="#ef2929"
     fill="#f57900"
     id="base"
     pagecolor="#ffffff"
     bordercolor="#666666"
     borderopacity="0.25490196"
     inkscape:pageopacity="0.0"
     inkscape:pageshadow="2"
     inkscape:zoom="1.4142136"
     inkscape:cx="22.98097"
     inkscape:cy="123.74369"
     inkscape:current-layer="layer9"
     showgrid="false"
     inkscape:grid-bbox="true"
     inkscape:document-units="px"
     inkscape:showpageshadow="false"
     inkscape:window-width="1536"
     inkscape:window-height="792"
     inkscape:window-x="0"
     inkscape:window-y="0"
     width="400px"
     height="300px"
     inkscape:snap-nodes="true"
     inkscape:snap-bbox="true"
     objecttolerance="7"
     gridtolerance="12"
     guidetolerance="13"
     inkscape:window-maximized="1"
     inkscape:pagecheckerboard="false"
     showguides="false"
     inkscape:guide-bbox="true"
     inkscape:locked="false"
     inkscape:measure-start="0,0"
     inkscape:measure-end="0,0"
     inkscape:object-nodes="true"
     inkscape:bbox-nodes="true"
     inkscape:snap-global="true"
     inkscape:object-paths="true"
     inkscape:snap-intersection-paths="true"
     inkscape:snap-bbox-edge-midpoints="true"
     inkscape:snap-bbox-midpoints="true"
     showborder="true"
     inkscape:snap-center="true"
     inkscape:snap-object-midpoints="true"
     inkscape:snap-midpoints="true"
     inkscape:snap-smooth-nodes="true"
     inkscape:snap-text-baseline="true"
     borderlayer="true"
     inkscape:deskcolor="#d1d1d1"><inkscape:grid
       type="xygrid"
       id="grid5883"
       spacingx="2"
       spacingy="2"
       enabled="true"
       visible="true"
       empspacing="4"
       originx="8"
       originy="8"
       units="px" /><sodipodi:guide
       position="72,16"
       orientation="0,1"
       id="guide1073"
       inkscape:locked="false"
       inkscape:label=""
       inkscape:color="rgb(0,0,255)" /><sodipodi:guide
       position="20,72"
       orientation="1,0"
       id="guide1075"
       inkscape:locked="false"
       inkscape:label=""
       inkscape:color="rgb(0,0,255)" /><sodipodi:guide
       position="72,112"
       orientation="0,1"
       id="guide1099"
       inkscape:locked="false"
       inkscape:label=""
       inkscape:color="rgb(0,0,255)" /><sodipodi:guide
       position="72,136"
       orientation="0,1"
       id="guide993"
       inkscape:locked="false"
       inkscape:label=""
       inkscape:color="rgb(0,0,255)" /><sodipodi:guide
       position="112,72"
       orientation="1,0"
       id="guide995"
       inkscape:locked="false"
       inkscape:label=""
       inkscape:color="rgb(0,0,255)" /><sodipodi:guide
       position="8.0000001,72"
       orientation="1,0"
       id="guide867"
       inkscape:locked="false"
       inkscape:label=""
       inkscape:color="rgb(0,0,255)" /><sodipodi:guide
       position="128,72"
       orientation="1,0"
       id="guide869"
       inkscape:locked="false"
       inkscape:label=""
       inkscape:color="rgb(0,0,255)" /><sodipodi:guide
       position="72,124"
       orientation="0,1"
       id="guide871"
       inkscape:locked="false"
       inkscape:label=""
       inkscape:color="rgb(0,0,255)" /><inkscape:grid
       type="xygrid"
       id="grid873"
       spacingx="1"
       spacingy="1"
       empspacing="8"
       color="#000000"
       opacity="0.49019608"
       empcolor="#000000"
       empopacity="0.08627451"
       dotted="true"
       originx="8"
       originy="8"
       units="px"
       enabled="false" /><sodipodi:guide
       position="32,72"
       orientation="1,0"
       id="guide877"
       inkscape:locked="false"
       inkscape:label=""
       inkscape:color="rgb(0,0,255)" /><sodipodi:guide
       position="124,72"
       orientation="1,0"
       id="guide879"
       inkscape:locked="false"
       inkscape:label=""
       inkscape:color="rgb(0,0,255)" /><sodipodi:guide
       position="72,128"
       orientation="0,1"
       id="guide881"
       inkscape:locked="false"
       inkscape:label=""
       inkscape:color="rgb(0,0,255)" /><sodipodi:guide
       position="72,20"
       orientation="0,1"
       id="guide883"
       inkscape:locked="false"
       inkscape:label=""
       inkscape:color="rgb(0,0,255)" /><sodipodi:guide
       position="16,72"
       orientation="1,0"
       id="guide885"
       inkscape:locked="false"
       inkscape:label=""
       inkscape:color="rgb(0,0,255)" /><sodipodi:guide
       position="136,72"
       orientation="1,0"
       id="guide887"
       inkscape:locked="false"
       inkscape:label=""
       inkscape:color="rgb(0,0,255)" /><sodipodi:guide
       position="72,8"
       orientation="0,1"
       id="guide897"
       inkscape:locked="false"
       inkscape:label=""
       inkscape:color="rgb(0,0,255)" /><sodipodi:guide
       position="72,32"
       orientation="0,1"
       id="guide899"
       inkscape:locked="false"
       inkscape:label=""
       inkscape:color="rgb(0,0,255)" /><sodipodi:guide
       position="264,264"
       orientation="-0.70710678,0.70710678"
       id="guide950"
       inkscape:locked="false"
       inkscape:label=""
       inkscape:color="rgb(0,0,255)" /><sodipodi:guide
       position="72,72"
       orientation="0.70710678,0.70710678"
       id="guide952"
       inkscape:locked="false"
       inkscape:label=""
       inkscape:color="rgb(0,0,255)" /></sodipodi:namedview><metadata
     id="metadata4"><rdf:RDF><cc:Work
         rdf:about=""><dc:format>image/svg+xml</dc:format><dc:type
           rdf:resource="http://purl.org/dc/dcmitype/StillImage" /><dc:creator><cc:Agent><dc:title>GNOME Design Team</dc:title></cc:Agent></dc:creator><dc:source /><cc:license
           rdf:resource="http://creativecommons.org/licenses/by-sa/4.0/" /><dc:title>Adwaita Icon Template</dc:title><dc:subject><rdf:Bag /></dc:subject><dc:date /><dc:rights><cc:Agent><dc:title /></cc:Agent></dc:rights><dc:publisher><cc:Agent><dc:title /></cc:Agent></dc:publisher><dc:identifier /><dc:relation /><dc:language /><dc:coverage /><dc:description /><dc:contributor><cc:Agent><dc:title /></cc:Agent></dc:contributor></cc:Work><cc:License
         rdf:about="http://creativecommons.org/licenses/by-sa/4.0/"><cc:permits
           rdf:resource="http://creativecommons.org/ns#Reproduction" /><cc:permits
           rdf:resource="http://creativecommons.org/ns#Distribution" /><cc:requires
           rdf:resource="http://creativecommons.org/ns#Notice" /><cc:requires
           rdf:resource="http://creativecommons.org/ns#Attribution" /><cc:permits
           rdf:resource="http://creativecommons.org/ns#DerivativeWorks" /><cc:requires
           rdf:resource="http://creativecommons.org/ns#ShareAlike" /></cc:License></rdf:RDF></metadata><g
     id="layer1"
     inkscape:label="App Icon"
     inkscape:groupmode="layer"
     style="display:inline"
     transform="translate(8,-156)"><g
       inkscape:groupmode="layer"
       id="layer4"
       inkscape:label="template"
       style="display:inline"
       sodipodi:insensitive="true"><rect
         inkscape:label="0"
         y="172"
         x="9.2651362e-08"
         height="128"
         width="128"
         id="hicolor"
         style="display:inline;overflow:visible;visibility:visible;fill:#f0f0f0;fill-opacity:0;fill-rule:nonzero;stroke:none;stroke-width:0.5;marker:none;enable-background:accumulate" /><rect
         style="display:inline;overflow:visible;visibility:visible;fill:#f0f0f0;fill-opacity:0;fill-rule:nonzero;stroke:none;stroke-width:0.5;marker:none;enable-background:accumulate"
         id="symbolic"
         width="16"
         height="16"
         x="160"
         y="172"
         inkscape:label="0" /></g><g
       inkscape:groupmode="layer"
       id="layer2"
       inkscape:label="baseplate"
       style="display:inline"
       sodipodi:insensitive="true"><g
         style="display:inline;fill:#000000;enable-background:new"
         transform="matrix(7.9911709,0,0,8.0036407,-167.7909,-4846.0776)"
         id="g12027"
         inkscape:export-xdpi="12"
         inkscape:export-ydpi="12" /><rect
         style="display:inline;overflow:visible;visibility:visible;fill:#f0f0f0;fill-opacity:1;fill-rule:nonzero;stroke:none;stroke-width:0.5;marker:none;enable-background:accumulate"
         id="128"
         width="128"
         height="128"
         x="9.2651362e-08"
         y="172"
         inkscape:label="0" /><g
         id="g883"
         style="fill:none;fill-opacity:0.25098;stroke:#a579b3;stroke-opacity:1"
         transform="translate(-24,24)" /><g
         id="g900"
         style="fill:none;fill-opacity:0.25098;stroke:#a579b3;stroke-opacity:1"
         transform="translate(-24,24)" /><rect
         inkscape:label=""
         y="172"
         x="160"
         height="16"
         width="16"
         id="16"
         style="display:inline;overflow:visible;visibility:visible;fill:#f0f0f0;fill-opacity:1;fill-rule:nonzero;stroke:none;stroke-width:0.5;marker:none;enable-background:accumulate" /><text
         xml:space="preserve"
         style="font-style:normal;font-variant:normal;font-weight:bold;font-stretch:normal;font-size:4px;line-height:125%;font-family:Cantarell;-inkscape-font-specification:'Cantarell, Bold';text-align:start;writing-mode:lr-tb;text-anchor:start;display:inline;fill:#000000;fill-opacity:1;stroke:none;stroke-width:0.332649;enable-background:new"
         x="0"
         y="167"
         id="text863"
         inkscape:label="icon-name"><tspan
           style="font-size:4px;stroke-width:0.332649"
           sodipodi:role="line"
           id="tspan861"
           x="0"
           y="167">Hicolor</tspan></text><text
         inkscape:label="icon-name"
         id="text867"
         y="167"
         x="160"
         style="font-style:normal;font-variant:normal;font-weight:bold;font-stretch:normal;font-size:4px;line-height:125%;font-family:Cantarell;-inkscape-font-specification:'Cantarell, Bold';text-align:start;writing-mode:lr-tb;text-anchor:start;display:inline;fill:#000000;fill-opacity:1;stroke:none;stroke-width:0.332649;enable-background:new"
         xml:space="preserve"><tspan
           y="167"
           x="160"
           id="tspan865"
           sodipodi:role="line"
           style="font-size:4px;stroke-width:0.332649">Symbolic</tspan></text></g><g
       inkscape:groupmode="layer"
       id="layer9"
       inkscape:label="icons"
       style="display:inline"><filter
         id="a"
         height="1"
         width="1"
         x="0"
         y="0"><feColorMatrix
           in="SourceGraphic"
           type="matrix"
           values="0 0 0 0 1 0 0 0 0 1 0 0 0 0 1 0 0 0 1 0"
           id="feColorMatrix161671" /></filter><mask
         id="b"><g
           filter="url(#a)"
           id="g161676"><path
             d="m 0 0 h 16 v 16 h -16 z"
             fill-opacity="0.3"
             id="path161674" /></g></mask><clipPath
         id="c"><path
           d="m 0 0 h 1600 v 1200 h -1600 z"
           id="path161679" /></clipPath><path
         id="rect1-3"
         style="font-variation-settings:normal;vector-effect:none;fill:#000000;fill-opacity:1;fill-rule:evenodd;stroke:none;stroke-width:0;stroke-linecap:butt;stroke-linejoin:miter;stroke-miterlimit:4;stroke-dasharray:none;stroke-dashoffset:0;stroke-opacity:1;-inkscape-stroke:none;stop-color:#000000"
         d="m 160.99444,174.00029 c -0.55046,0 -0.99414,0.44368 -0.99414,0.99414 v 10.01172 c 0,0.55046 0.44368,0.99414 0.99414,0.99414 h 0.0117 c 0.55048,0 0.99416,-0.44368 0.99416,-0.99414 v -1.00586 h 1.5 2 a 1.2071068,1.2071068 0 0 0 0.85352,-0.35352 l 1.29296,-1.29296 a 1.2071068,1.2071068 0 0 1 0.85352,-0.35352 h 1 a 1.2071068,1.2071068 0 0 1 0.85352,0.35352 l 1.29296,1.29296 a 1.2071068,1.2071068 0 0 0 0.85352,0.35352 h 1.5 v 1.00586 c 0,0.55046 0.44368,0.99414 0.99414,0.99414 h 0.0117 c 0.55048,0 0.99416,-0.44368 0.99416,-0.99414 v -10.01172 c 0,-0.55046 -0.44368,-0.99414 -0.99414,-0.99414 h -0.0117 c -0.55048,0 -0.99416,0.44368 -0.99416,0.99414 v 1.00586 h -3.5 a 1.2071068,1.2071068 0 0 0 -0.85352,0.35352 l -1.29296,1.29296 a 1.2071068,1.2071068 0 0 1 -0.85352,0.35352 h -1 a 1.2071068,1.2071068 0 0 1 -0.85352,-0.35352 l -1.29296,-1.29296 a 1.2071068,1.2071068 0 0 0 -0.85352,-0.35352 h -1.5 v -1.00586 c 0,-0.55046 -0.44368,-0.99414 -0.99414,-0.99414 z" /><g
         style="display:inline;enable-background:new"
         id="g1"
         transform="translate(2.98e-4,172)"><g
           id="layer2-5"
           inkscape:label="icon"
           inkscape:highlight-color="#3584e4"><path
             id="rect2"
             style="display:inline;vector-effect:none;fill:url(#linearGradient11);fill-rule:evenodd;stroke-width:0;enable-background:new;stop-color:#000000"
             d="m 24,36 h 2 l 3.999702,3.99969 v 64 L 26,108 h -2 z"
             sodipodi:nodetypes="ccccccc" /><rect
             style="font-variation-settings:normal;display:inline;vector-effect:none;fill:url(#linearGradient37);fill-rule:evenodd;stroke:none;stroke-width:0;stroke-linecap:butt;stroke-linejoin:miter;stroke-miterlimit:4;stroke-dasharray:none;stroke-dashoffset:0;stroke-opacity:1;-inkscape-stroke:none;enable-background:new;stop-color:#000000"
             id="rect36"
             width="18"
             height="6"
             x="-63.999702"
             y="33.999695"
             ry="3"
             rx="3"
             transform="scale(-1,1)" /><rect
             style="font-variation-settings:normal;display:inline;vector-effect:none;fill:#9a9996;fill-opacity:1;fill-rule:evenodd;stroke:none;stroke-width:0;stroke-linecap:butt;stroke-linejoin:miter;stroke-miterlimit:4;stroke-dasharray:none;stroke-dashoffset:0;stroke-opacity:1;-inkscape-stroke:none;enable-background:new;stop-color:#000000"
             id="rect25"
             width="6"
             height="8"
             x="14"
             y="24"
             ry="3"
             rx="3" /><rect
             style="font-variation-settings:normal;display:inline;vector-effect:none;fill:#9a9996;fill-opacity:1;fill-rule:evenodd;stroke:none;stroke-width:0;stroke-linecap:butt;stroke-linejoin:miter;stroke-miterlimit:4;stroke-dasharray:none;stroke-dashoffset:0;stroke-opacity:1;-inkscape-stroke:none;enable-background:new;stop-color:#000000"
             id="rect27"
             width="6"
             height="8"
             x="108"
             y="24"
             ry="3"
             rx="3" /><path
             id="rect6"
             style="display:inline;vector-effect:none;fill:url(#linearGradient19);fill-rule:evenodd;stroke-width:0;enable-background:new;stop-color:#000000"
             d="m 29.999702,39.99969 h 10 a 4.8284271,4.8284271 0 0 1 3.414214,1.41421 l 1.171572,1.17158 a 4.8284271,4.8284271 0 0 0 3.414214,1.41421 h 14 a 4.8284271,4.8284271 0 0 0 3.414214,-1.41421 l 1.171572,-1.17158 a 4.8284271,4.8284271 0 0 1 3.414214,-1.41421 h 6 a 6.6055513,6.6055513 0 0 0 3.664101,-1.1094 l 2.671798,-1.7812 a 6.6055513,6.6055513 0 0 1 3.664101,-1.1094 h 2 a 6.6055513,6.6055513 0 0 1 3.664101,1.1094 l 2.671798,1.7812 a 6.6055513,6.6055513 0 0 0 3.664097,1.1094 v 64 h -7.171569 a 6.8284271,6.8284271 0 0 1 -4.828427,-2 v 0 a 6.8284271,6.8284271 0 0 0 -4.828427,-2 h -6.343146 a 6.8284271,6.8284271 0 0 0 -4.828427,2 v 0 a 6.8284271,6.8284271 0 0 1 -4.828427,2 h -6.398072 a 9.1602515,9.1602515 0 0 0 -5.081193,1.53846 l -2.028207,1.35214 a 6.6055513,6.6055513 0 0 1 -3.664101,1.1094 h -2 a 6.6055513,6.6055513 0 0 1 -3.664101,-1.1094 l -2.028207,-1.35214 a 9.1602515,9.1602515 0 0 0 -5.081193,-1.53846 h -5.226499 z"
             sodipodi:nodetypes="ccccccccccccccccccccc" /><path
             id="rect1"
             style="display:inline;vector-effect:none;fill:url(#linearGradient7);fill-rule:evenodd;stroke-width:0;enable-background:new;stop-color:#000000"
             d="m 16.999702,27.99969 c 4.986,0 9,4.014 9,9 v 70 c 0,4.986 -4.014,9 -9,9 -4.986,0 -9,-4.014 -9,-9 v -70 c 0,-4.986 4.014,-9 9,-9 z"
             sodipodi:nodetypes="sssssss" /><rect
             style="font-variation-settings:normal;display:inline;vector-effect:none;fill:url(#linearGradient13);fill-rule:evenodd;stroke:none;stroke-width:0;stroke-linecap:butt;stroke-linejoin:miter;stroke-miterlimit:4;stroke-dasharray:none;stroke-dashoffset:0;stroke-opacity:1;-inkscape-stroke:none;enable-background:new;stop-color:#000000"
             id="rect26"
             width="24"
             height="6"
             x="-50"
             y="48"
             ry="3"
             rx="3"
             transform="scale(-1,1)" /><rect
             style="font-variation-settings:normal;display:inline;vector-effect:none;fill:url(#linearGradient31);fill-rule:evenodd;stroke:none;stroke-width:0;stroke-linecap:butt;stroke-linejoin:miter;stroke-miterlimit:4;stroke-dasharray:none;stroke-dashoffset:0;stroke-opacity:1;-inkscape-stroke:none;enable-background:new;stop-color:#000000"
             id="rect30"
             width="40"
             height="6"
             x="-66"
             y="94.000015"
             ry="3"
             rx="3"
             transform="scale(-1,1)" /><rect
             style="font-variation-settings:normal;display:inline;vector-effect:none;fill:url(#linearGradient29);fill-rule:evenodd;stroke:none;stroke-width:0;stroke-linecap:butt;stroke-linejoin:miter;stroke-miterlimit:4;stroke-dasharray:none;stroke-dashoffset:0;stroke-opacity:1;-inkscape-stroke:none;enable-background:new;stop-color:#000000"
             id="rect28"
             width="22"
             height="6"
             x="-101.9997"
             y="77.999695"
             ry="3"
             rx="3"
             transform="scale(-1,1)" /><rect
             style="font-variation-settings:normal;display:inline;vector-effect:none;fill:url(#linearGradient33);fill-rule:evenodd;stroke:none;stroke-width:0;stroke-linecap:butt;stroke-linejoin:miter;stroke-miterlimit:4;stroke-dasharray:none;stroke-dashoffset:0;stroke-opacity:1;-inkscape-stroke:none;enable-background:new;stop-color:#000000"
             id="rect32"
             width="23.999998"
             height="6.4369493"
             x="38"
             y="70"
             ry="2.9999995"
             rx="2.9999995" /><rect
             style="font-variation-settings:normal;display:inline;vector-effect:none;fill:url(#linearGradient34);fill-rule:evenodd;stroke:none;stroke-width:0;stroke-linecap:butt;stroke-linejoin:miter;stroke-miterlimit:4;stroke-dasharray:none;stroke-dashoffset:0;stroke-opacity:1;-inkscape-stroke:none;enable-background:new;stop-color:#000000"
             id="rect33"
             width="30.000002"
             height="6"
             x="-101.9997"
             y="55.999695"
             ry="3"
             rx="3"
             transform="scale(-1,1)" /><path
             id="path6"
             style="display:inline;vector-effect:none;fill:url(#linearGradient8);fill-rule:evenodd;stroke-width:0;enable-background:new;stop-color:#000000"
             d="m 103.9997,36.00031 h -2 L 98,40 v 64 l 3.9997,4.00031 h 2 z"
             sodipodi:nodetypes="ccccccc" /><rect
             style="font-variation-settings:normal;display:inline;vector-effect:none;fill:url(#linearGradient42);fill-rule:evenodd;stroke:none;stroke-width:0;stroke-linecap:butt;stroke-linejoin:miter;stroke-miterlimit:4;stroke-dasharray:none;stroke-dashoffset:0;stroke-opacity:1;-inkscape-stroke:none;enable-background:new;stop-color:#000000"
             id="rect41"
             width="12"
             height="6"
             x="71.999702"
             y="103.99971"
             ry="3"
             rx="3" /><path
             id="path2"
             style="font-variation-settings:normal;display:inline;vector-effect:none;fill:#2ec27e;fill-opacity:1;fill-rule:evenodd;stroke:none;stroke-width:0;stroke-linecap:butt;stroke-linejoin:miter;stroke-miterlimit:4;stroke-dasharray:none;stroke-dashoffset:0;stroke-opacity:1;-inkscape-stroke:none;enable-background:new;stop-color:#000000"
             d="m 43,58 c -0.554,0 -1,0.446 -1,1 v 1 h -1 c -0.554,0 -1,0.446 -1,1 0,0.554 0.446,1 1,1 h 1 v 5 c 0,0.554 0.446,1 1,1 0.554,0 1,-0.446 1,-1 v -6 -2 c 0,-0.554 -0.446,-1 -1,-1 z" /><path
             id="path3"
             style="font-variation-settings:normal;display:inline;vector-effect:none;fill:#2ec27e;fill-opacity:1;fill-rule:evenodd;stroke:none;stroke-width:0;stroke-linecap:butt;stroke-linejoin:miter;stroke-miterlimit:4;stroke-dasharray:none;stroke-dashoffset:0;stroke-opacity:1;-inkscape-stroke:none;enable-background:new;stop-color:#000000"
             d="m 73,73.5 c -0.554,0 -1,0.446 -1,1 v 1 h -1 c -0.554,0 -1,0.446 -1,1 0,0.554 0.446,1 1,1 h 1 v 5 c 0,0.554 0.446,1 1,1 0.554,0 1,-0.446 1,-1 v -6 -2 c 0,-0.554 -0.446,-1 -1,-1 z" /><path
             id="path4"
             style="font-variation-settings:normal;display:inline;vector-effect:none;fill:#2ec27e;fill-opacity:1;fill-rule:evenodd;stroke:none;stroke-width:0;stroke-linecap:butt;stroke-linejoin:miter;stroke-miterlimit:4;stroke-dasharray:none;stroke-dashoffset:0;stroke-opacity:1;-inkscape-stroke:none;enable-background:new;stop-color:#000000"
             d="m 53,80 c -1.662,0 -3,1.338 -3,3 v 4 c 0,1.662 1.338,3 3,3 1.662,0 3,-1.338 3,-3 v -4 c 0,-1.662 -1.338,-3 -3,-3 z m 0,2 c 0.554,0 1,0.446 1,1 v 4 c 0,0.554 -0.446,1 -1,1 -0.554,0 -1,-0.446 -1,-1 v -4 c 0,-0.554 0.446,-1 1,-1 z" /><path
             id="path7"
             style="font-variation-settings:normal;display:inline;vector-effect:none;fill:#2ec27e;fill-opacity:1;fill-rule:evenodd;stroke:none;stroke-width:0;stroke-linecap:butt;stroke-linejoin:miter;stroke-miterlimit:4;stroke-dasharray:none;stroke-dashoffset:0;stroke-opacity:1;-inkscape-stroke:none;enable-background:new;stop-color:#000000"
             d="m 87,42 c -0.554,0 -1,0.446 -1,1 v 1 h -1 c -0.554,0 -1,0.446 -1,1 0,0.554 0.446,1 1,1 h 1 v 5 c 0,0.554 0.446,1 1,1 0.554,0 1,-0.446 1,-1 v -6 -2 c 0,-0.554 -0.446,-1 -1,-1 z" /><path
             id="path10"
             style="display:inline;vector-effect:none;fill:url(#linearGradient23);fill-opacity:1;fill-rule:evenodd;stroke-width:0;enable-background:new;stop-color:#000000"
             d="m 110.9997,27.99969 c 4.986,0 9,4.014 9,9 v 70 c 0,4.986 -4.014,9 -9,9 -4.986,0 -9,-4.014 -9,-9 v -70 c 0,-4.986 4.014,-9 9,-9 z"
             sodipodi:nodetypes="sssssss" /><path
             id="path1"
             style="font-variation-settings:normal;display:inline;vector-effect:none;fill:#2ec27e;fill-opacity:1;fill-rule:evenodd;stroke:none;stroke-width:0;stroke-linecap:butt;stroke-linejoin:miter;stroke-miterlimit:4;stroke-dasharray:none;stroke-dashoffset:0;stroke-opacity:1;-inkscape-stroke:none;enable-background:new;stop-color:#000000"
             d="m 87,88 c -0.554,0 -1,0.446 -1,1 v 1 h -1 c -0.554,0 -1,0.446 -1,1 0,0.554 0.446,1 1,1 h 1 v 5 c 0,0.554 0.446,1 1,1 0.554,0 1,-0.446 1,-1 v -6 -2 c 0,-0.554 -0.446,-1 -1,-1 z" /><path
             id="path5"
             style="font-variation-settings:normal;display:inline;vector-effect:none;fill:#2ec27e;fill-opacity:1;fill-rule:evenodd;stroke:none;stroke-width:0;stroke-linecap:butt;stroke-linejoin:miter;stroke-miterlimit:4;stroke-dasharray:none;stroke-dashoffset:0;stroke-opacity:1;-inkscape-stroke:none;enable-background:new;stop-color:#000000"
             d="m 61,52 c -1.662,0 -3,1.338 -3,3 v 4 c 0,1.662 1.338,3 3,3 1.662,0 3,-1.338 3,-3 v -4 c 0,-1.662 -1.338,-3 -3,-3 z m 0,2 c 0.554,0 1,0.446 1,1 v 4 c 0,0.554 -0.446,1 -1,1 -0.554,0 -1,-0.446 -1,-1 v -4 c 0,-0.554 0.446,-1 1,-1 z" /><circle
             style="font-variation-settings:normal;display:inline;vector-effect:none;fill:#f6f5f4;fill-opacity:1;fill-rule:evenodd;stroke:none;stroke-width:0;stroke-linecap:butt;stroke-linejoin:miter;stroke-miterlimit:4;stroke-dasharray:none;stroke-dashoffset:0;stroke-opacity:1;-inkscape-stroke:none;enable-background:new;stop-color:#000000"
             id="path55"
             cx="17"
             cy="72"
             r="5" /><circle
             style="font-variation-settings:normal;display:inline;vector-effect:none;fill:#33d17a;fill-opacity:1;fill-rule:evenodd;stroke:none;stroke-width:0;stroke-linecap:butt;stroke-linejoin:miter;stroke-miterlimit:4;stroke-dasharray:none;stroke-dashoffset:0;stroke-opacity:1;-inkscape-stroke:none;enable-background:new;stop-color:#000000"
             id="path59"
             cx="17"
             cy="72"
             r="3" /><circle
             style="font-variation-settings:normal;display:inline;vector-effect:none;fill:#f6f5f4;fill-opacity:1;fill-rule:evenodd;stroke:none;stroke-width:0;stroke-linecap:butt;stroke-linejoin:miter;stroke-miterlimit:4;stroke-dasharray:none;stroke-dashoffset:0;stroke-opacity:1;-inkscape-stroke:none;enable-background:new;stop-color:#000000"
             id="circle59"
             cx="111"
             cy="72"
             r="5" /><circle
             style="font-variation-settings:normal;display:inline;vector-effect:none;fill:#989898;fill-opacity:1;fill-rule:evenodd;stroke:none;stroke-width:0;stroke-linecap:butt;stroke-linejoin:miter;stroke-miterlimit:4;stroke-dasharray:none;stroke-dashoffset:0;stroke-opacity:1;-inkscape-stroke:none;enable-background:new;stop-color:#000000"
             id="circle60"
             cx="111"
             cy="72"
             r="3" /><path
             id="path8"
             style="display:inline;vector-effect:none;fill:url(#linearGradient28);fill-rule:evenodd;stroke-width:0;enable-background:new;stop-color:#000000"
             d="m 30.000004,40 h 10 c 1.280578,-10e-7 2.508708,0.508705 3.414214,1.41421 l 1.171572,1.17158 c 0.905506,0.905505 2.133636,1.414211 3.414214,1.41421 h 14 c 1.280578,10e-7 2.508708,-0.508705 3.414214,-1.41421 L 66.58579,41.41421 C 67.491296,40.508705 68.719426,39.999999 70.000004,40 h 6 c 1.304101,0 2.579023,-0.386015 3.664101,-1.1094 l 2.671798,-1.7812 C 83.420981,36.386015 84.695903,36 86.000004,36 h 2 c 1.304101,0 2.579023,0.386015 3.664101,1.1094 l 2.671798,1.7812 C 95.42098,39.613984 96.6959,39.999999 98,40 v 64 h -7.171569 c -1.811011,0 -3.547849,-0.71942 -4.828427,-2 v 0 c -1.280578,-1.28058 -3.017416,-2 -4.828427,-2 h -6.343146 c -1.811011,0 -3.547849,0.71942 -4.828427,2 v 0 c -1.280578,1.28058 -3.017416,2 -4.828427,2 h -6.398072 c -1.808462,0 -3.576461,0.53531 -5.081193,1.53846 l -2.028207,1.35214 c -1.085078,0.72338 -2.36,1.1094 -3.664101,1.1094 h -2 c -1.304101,0 -2.579023,-0.38602 -3.664101,-1.1094 l -2.028207,-1.35214 C 38.802964,104.53531 37.034965,104 35.226503,104 h -5.226499 z"
             sodipodi:nodetypes="cccccccccccccccccccccssssssssssssscc" /></g></g></g><g
       inkscape:groupmode="layer"
       id="layer3"
       inkscape:label="grid"
       style="display:inline"
       sodipodi:insensitive="true"><circle
         cx="64.000031"
         cy="236"
         r="59.504131"
         id="circle2892"
         style="display:inline;opacity:0.1;vector-effect:none;fill:none;fill-opacity:1;stroke:#000000;stroke-width:0.99;stroke-linecap:butt;stroke-linejoin:miter;stroke-miterlimit:4;stroke-dasharray:0.99, 0.99;stroke-dashoffset:0;stroke-opacity:1;marker:none;marker-start:none;marker-mid:none;marker-end:none;paint-order:normal;enable-background:new" /><rect
         ry="7.9292889"
         rx="8.701004"
         y="180.49496"
         x="20.495007"
         height="111.01005"
         width="87.009987"
         id="rect2894"
         style="display:inline;opacity:0.1;vector-effect:none;fill:none;fill-opacity:1;stroke:#000000;stroke-width:0.99;stroke-linecap:butt;stroke-linejoin:miter;stroke-miterlimit:4;stroke-dasharray:0.99, 0.99;stroke-dashoffset:0;stroke-opacity:1;marker:none;marker-start:none;marker-mid:none;marker-end:none;paint-order:normal;enable-background:new" /><rect
         ry="7.9238095"
         rx="7.9238095"
         y="184.49524"
         x="12.495266"
         height="103.00952"
         width="103.00952"
         id="rect2896"
         style="display:inline;opacity:0.1;vector-effect:none;fill:none;fill-opacity:1;stroke:#000000;stroke-width:0.99;stroke-linecap:butt;stroke-linejoin:miter;stroke-miterlimit:4;stroke-dasharray:0.99, 0.99;stroke-dashoffset:0;stroke-opacity:1;marker:none;marker-start:none;marker-mid:none;marker-end:none;paint-order:normal;enable-background:new" /><rect
         ry="8.701005"
         rx="7.9292889"
         y="200.49496"
         x="8.4950066"
         height="87.010048"
         width="111.01004"
         id="rect2898"
         style="display:inline;opacity:0.1;vector-effect:none;fill:none;fill-opacity:1;stroke:#000000;stroke-width:0.99;stroke-linecap:butt;stroke-linejoin:miter;stroke-miterlimit:4;stroke-dasharray:0.99, 0.99;stroke-dashoffset:0;stroke-opacity:1;marker:none;marker-start:none;marker-mid:none;marker-end:none;paint-order:normal;enable-background:new" /><path
         inkscape:connector-curvature="0"
         id="path2900"
         d="M 2.6203015e-5,288.99999 H 128.00003"
         style="display:inline;fill:none;stroke:#62a0ea;stroke-width:2;stroke-linecap:butt;stroke-linejoin:miter;stroke-miterlimit:4;stroke-dasharray:none;stroke-opacity:1;enable-background:new" /></g></g></svg>
