<?xml version="1.0" encoding="UTF-8"?>
<svg height="128px" viewBox="0 0 128 128" width="128px" xmlns="http://www.w3.org/2000/svg" xmlns:xlink="http://www.w3.org/1999/xlink">
    <linearGradient id="a" gradientUnits="userSpaceOnUse" x1="29.999702" x2="97.999702" y1="71.999695" y2="71.999695">
        <stop offset="0" stop-color="#2ec27e"/>
        <stop offset="0.264706" stop-color="#57e389"/>
        <stop offset="0.75" stop-color="#8ff0a4"/>
        <stop offset="1" stop-color="#2ec27e"/>
    </linearGradient>
    <linearGradient id="b" gradientUnits="userSpaceOnUse">
        <stop offset="0" stop-color="#c0bfbc"/>
        <stop offset="0.25" stop-color="#deddda"/>
        <stop offset="0.568182" stop-color="#c0bfbc"/>
        <stop offset="1" stop-color="#77767b"/>
    </linearGradient>
    <linearGradient id="c" x1="17.999702" x2="17.999702" xlink:href="#b" y1="27.999695" y2="115.999695"/>
    <linearGradient id="d" gradientTransform="matrix(-0.647059 0 0 1.5 138.234993 20.999695)" gradientUnits="userSpaceOnUse" x1="56" x2="90" y1="40" y2="40">
        <stop offset="0" stop-color="#57e389"/>
        <stop offset="1" stop-color="#33d17a" stop-opacity="0.345697"/>
    </linearGradient>
    <linearGradient id="e" gradientTransform="matrix(-1.529412 0 0 1.5 163.646766 32.999695)" gradientUnits="userSpaceOnUse" x1="56" x2="90" y1="40" y2="40">
        <stop offset="0" stop-color="#57e389"/>
        <stop offset="1" stop-color="#33d17a"/>
    </linearGradient>
    <linearGradient id="f" gradientTransform="matrix(0.882353 0 0 1.5 -11.41208 12.999695)" gradientUnits="userSpaceOnUse" x1="56" x2="90" y1="40" y2="40">
        <stop offset="0" stop-color="#33d17a"/>
        <stop offset="1" stop-color="#57e389"/>
    </linearGradient>
    <linearGradient id="g" gradientTransform="matrix(-0.882353 0 0 1.5 151.411476 -1.000305)" gradientUnits="userSpaceOnUse" x1="56" x2="90" y1="40" y2="40">
        <stop offset="0" stop-color="#8ff0a4"/>
        <stop offset="1" stop-color="#33d17a" stop-opacity="0.830782"/>
    </linearGradient>
    <linearGradient id="h" gradientUnits="userSpaceOnUse">
        <stop offset="0" stop-color="#8ff0a4"/>
        <stop offset="1" stop-color="#57e389"/>
    </linearGradient>
    <linearGradient id="i" gradientTransform="matrix(-0.529412 0 0 1.5 93.646774 -23.000305)" x1="56" x2="90" xlink:href="#h" y1="40" y2="40"/>
    <linearGradient id="j" gradientTransform="matrix(0.352941 0 0 1.5 52.234993 46.999695)" x1="56" x2="90" xlink:href="#h" y1="40" y2="40"/>
    <linearGradient id="k" gradientUnits="userSpaceOnUse">
        <stop offset="0" stop-color="#77767b"/>
        <stop offset="0.5" stop-color="#c0bfbc"/>
        <stop offset="0.9999" stop-color="#77767b"/>
    </linearGradient>
    <linearGradient id="l" x1="27.999702" x2="27.999702" xlink:href="#k" y1="35.999695" y2="107.999695"/>
    <linearGradient id="m" gradientUnits="userSpaceOnUse" x1="17.999702" x2="17.999702" y1="63.999695" y2="79.999695">
        <stop offset="0" stop-color="#57e389"/>
        <stop offset="1" stop-color="#2ec27e"/>
    </linearGradient>
    <linearGradient id="n" gradientTransform="matrix(-1 0 0 1 127.999702 -0.000305)" x1="18" x2="18" xlink:href="#b" y1="28" y2="116"/>
    <linearGradient id="o" gradientTransform="matrix(-1 0 0 1 127.999702 -0.000305)" x1="28" x2="28" xlink:href="#k" y1="36" y2="108"/>
    <linearGradient id="p" gradientUnits="userSpaceOnUse" x1="111.999702" x2="111.999702" y1="63.999695" y2="79.999695">
        <stop offset="0" stop-color="#c0bfbc"/>
        <stop offset="1" stop-color="#9a9996"/>
    </linearGradient>
    <g fill-rule="evenodd">
        <path d="m 30 40 h 10 c 1.28125 0 2.507812 0.507812 3.414062 1.414062 l 1.171876 1.171876 c 0.90625 0.90625 2.132812 1.414062 3.414062 1.414062 h 14 c 1.28125 0 2.507812 -0.507812 3.414062 -1.414062 l 1.171876 -1.171876 c 0.90625 -0.90625 2.132812 -1.414062 3.414062 -1.414062 h 6 c 1.304688 0 2.578125 -0.386719 3.664062 -1.109375 l 2.671876 -1.78125 c 1.085937 -0.722656 2.359374 -1.109375 3.664062 -1.109375 h 2 c 1.304688 0 2.578125 0.386719 3.664062 1.109375 l 2.671876 1.78125 c 1.085937 0.722656 2.359374 1.109375 3.664062 1.109375 v 64 h -7.171875 c -1.8125 0 -3.546875 -0.71875 -4.828125 -2 s -3.019531 -2 -4.828125 -2 h -6.34375 c -1.8125 0 -3.546875 0.71875 -4.828125 2 s -3.019531 2 -4.828125 2 h -6.398437 c -1.808594 0 -3.578126 0.535156 -5.082032 1.539062 l -2.027344 1.351563 c -1.085937 0.722656 -2.359374 1.109375 -3.664062 1.109375 h -2 c -1.304688 0 -2.578125 -0.386719 -3.664062 -1.109375 l -2.027344 -1.351563 c -1.507813 -1.003906 -3.273438 -1.539062 -5.082032 -1.539062 h -5.226562 z m 0 0" fill="url(#a)"/>
        <path d="m 17 28 c 4.984375 0 9 4.015625 9 9 v 70 c 0 4.984375 -4.015625 9 -9 9 s -9 -4.015625 -9 -9 v -70 c 0 -4.984375 4.015625 -9 9 -9 z m 0 0" fill="url(#c)"/>
        <path d="m 47 48 h -18 c -1.65625 0 -3 1.34375 -3 3 s 1.34375 3 3 3 h 18 c 1.65625 0 3 -1.34375 3 -3 s -1.34375 -3 -3 -3 z m 0 0" fill="#33d17a"/>
        <path d="m 99 78 h -16 c -1.65625 0 -3 1.34375 -3 3 s 1.34375 3 3 3 h 16 c 1.65625 0 3 -1.34375 3 -3 s -1.34375 -3 -3 -3 z m 0 0" fill="url(#d)"/>
        <path d="m 75 90 h -46 c -1.65625 0 -3 1.34375 -3 3 s 1.34375 3 3 3 h 46 c 1.65625 0 3 -1.34375 3 -3 s -1.34375 -3 -3 -3 z m 0 0" fill="url(#e)"/>
        <path d="m 41 70 h 24 c 1.65625 0 3 1.34375 3 3 s -1.34375 3 -3 3 h -24 c -1.65625 0 -3 -1.34375 -3 -3 s 1.34375 -3 3 -3 z m 0 0" fill="url(#f)"/>
        <path d="m 99 56 h -24 c -1.65625 0 -3 1.34375 -3 3 s 1.34375 3 3 3 h 24 c 1.65625 0 3 -1.34375 3 -3 s -1.34375 -3 -3 -3 z m 0 0" fill="url(#g)"/>
        <path d="m 61 34 h -12 c -1.65625 0 -3 1.34375 -3 3 s 1.34375 3 3 3 h 12 c 1.65625 0 3 -1.34375 3 -3 s -1.34375 -3 -3 -3 z m 0 0" fill="url(#i)"/>
        <path d="m 75 104 h 6 c 1.65625 0 3 1.34375 3 3 s -1.34375 3 -3 3 h -6 c -1.65625 0 -3 -1.34375 -3 -3 s 1.34375 -3 3 -3 z m 0 0" fill="url(#j)"/>
        <path d="m 26 36 l 4 4 v 64 l -4 4 z m 0 0" fill="url(#l)"/>
        <path d="m 59 78 c -1.664062 0 -3 1.335938 -3 3 v 4 c 0 1.660156 1.335938 3 3 3 c 1.660156 0 3 -1.339844 3 -3 v -4 c 0 -1.664062 -1.339844 -3 -3 -3 z m 0 2 c 0.554688 0 1 0.445312 1 1 v 4 c 0 0.554688 -0.445312 1 -1 1 s -1 -0.445312 -1 -1 v -4 c 0 -0.554688 0.445312 -1 1 -1 z m 0 0" fill="#26a269"/>
        <g fill="#2ec27e">
            <path d="m 43 50 c -0.554688 0 -1 0.445312 -1 1 v 1 h -1 c -0.554688 0 -1 0.445312 -1 1 s 0.445312 1 1 1 h 1 v 5 c 0 0.554688 0.445312 1 1 1 s 1 -0.445312 1 -1 v -8 c 0 -0.554688 -0.445312 -1 -1 -1 z m 0 0"/>
            <path d="m 87 69 c -1.664062 0 -3 1.335938 -3 3 v 4 c 0 1.660156 1.335938 3 3 3 c 1.660156 0 3 -1.339844 3 -3 v -4 c 0 -1.664062 -1.339844 -3 -3 -3 z m 0 2 c 0.554688 0 1 0.445312 1 1 v 4 c 0 0.554688 -0.445312 1 -1 1 s -1 -0.445312 -1 -1 v -4 c 0 -0.554688 0.445312 -1 1 -1 z m 0 0"/>
            <path d="m 41 72 c -0.554688 0 -1 0.445312 -1 1 v 1 h -1 c -0.554688 0 -1 0.445312 -1 1 s 0.445312 1 1 1 h 1 v 5 c 0 0.554688 0.445312 1 1 1 s 1 -0.445312 1 -1 v -8 c 0 -0.554688 -0.445312 -1 -1 -1 z m 0 0"/>
            <path d="m 75 82 c -0.554688 0 -1 0.445312 -1 1 v 1 h -1 c -0.554688 0 -1 0.445312 -1 1 s 0.445312 1 1 1 h 1 v 5 c 0 0.554688 0.445312 1 1 1 s 1 -0.445312 1 -1 v -8 c 0 -0.554688 -0.445312 -1 -1 -1 z m 0 0"/>
            <path d="m 87 48 c -0.554688 0 -1 0.445312 -1 1 v 1 h -1 c -0.554688 0 -1 0.445312 -1 1 s 0.445312 1 1 1 h 1 v 5 c 0 0.554688 0.445312 1 1 1 s 1 -0.445312 1 -1 v -8 c 0 -0.554688 -0.445312 -1 -1 -1 z m 0 0"/>
            <path d="m 61 58 c -1.664062 0 -3 1.335938 -3 3 v 4 c 0 1.660156 1.335938 3 3 3 c 1.660156 0 3 -1.339844 3 -3 v -4 c 0 -1.664062 -1.339844 -3 -3 -3 z m 0 2 c 0.554688 0 1 0.445312 1 1 v 4 c 0 0.554688 -0.445312 1 -1 1 s -1 -0.445312 -1 -1 v -4 c 0 -0.554688 0.445312 -1 1 -1 z m 0 0"/>
            <path d="m 47 92 c -1.664062 0 -3 1.335938 -3 3 v 4 c 0 1.660156 1.335938 3 3 3 c 1.660156 0 3 -1.339844 3 -3 v -4 c 0 -1.664062 -1.339844 -3 -3 -3 z m 0 2 c 0.554688 0 1 0.445312 1 1 v 4 c 0 0.554688 -0.445312 1 -1 1 s -1 -0.445312 -1 -1 v -4 c 0 -0.554688 0.445312 -1 1 -1 z m 0 0"/>
            <path d="m 91 88 c -1.664062 0 -3 1.335938 -3 3 v 4 c 0 1.660156 1.335938 3 3 3 c 1.660156 0 3 -1.339844 3 -3 v -4 c 0 -1.664062 -1.339844 -3 -3 -3 z m 0 2 c 0.554688 0 1 0.445312 1 1 v 4 c 0 0.554688 -0.445312 1 -1 1 s -1 -0.445312 -1 -1 v -4 c 0 -0.554688 0.445312 -1 1 -1 z m 0 0"/>
            <path d="m 71 44 c -0.554688 0 -1 0.445312 -1 1 v 1 h -1 c -0.554688 0 -1 0.445312 -1 1 s 0.445312 1 1 1 h 1 v 5 c 0 0.554688 0.445312 1 1 1 s 1 -0.445312 1 -1 v -8 c 0 -0.554688 -0.445312 -1 -1 -1 z m 0 0"/>
            <path d="m 59 78 c -1.664062 0 -3 1.335938 -3 3 v 4 c 0 1.660156 1.335938 3 3 3 c 1.660156 0 3 -1.339844 3 -3 v -4 c 0 -1.664062 -1.339844 -3 -3 -3 z m 0 2 c 0.554688 0 1 0.445312 1 1 v 4 c 0 0.554688 -0.445312 1 -1 1 s -1 -0.445312 -1 -1 v -4 c 0 -0.554688 0.445312 -1 1 -1 z m 0 0"/>
        </g>
        <path d="m 17 62 c 2.761719 0 5 2.238281 5 5 v 10 c 0 2.761719 -2.238281 5 -5 5 s -5 -2.238281 -5 -5 v -10 c 0 -2.761719 2.238281 -5 5 -5 z m 0 0" fill="#f6f5f4"/>
        <path d="m 17 64 c 1.65625 0 3 1.34375 3 3 v 10 c 0 1.65625 -1.34375 3 -3 3 s -3 -1.34375 -3 -3 v -10 c 0 -1.65625 1.34375 -3 3 -3 z m 0 0" fill="url(#m)"/>
        <path d="m 111 28 c -4.984375 0 -9 4.015625 -9 9 v 70 c 0 4.984375 4.015625 9 9 9 s 9 -4.015625 9 -9 v -70 c 0 -4.984375 -4.015625 -9 -9 -9 z m 0 0" fill="url(#n)"/>
        <path d="m 102 36 l -4 4 v 64 l 4 4 z m 0 0" fill="url(#o)"/>
        <path d="m 111 62 c 2.761719 0 5 2.238281 5 5 v 10 c 0 2.761719 -2.238281 5 -5 5 s -5 -2.238281 -5 -5 v -10 c 0 -2.761719 2.238281 -5 5 -5 z m 0 0" fill="#f6f5f4"/>
        <path d="m 111 64 c 1.65625 0 3 1.34375 3 3 v 10 c 0 1.65625 -1.34375 3 -3 3 s -3 -1.34375 -3 -3 v -10 c 0 -1.65625 1.34375 -3 3 -3 z m 0 0" fill="url(#p)"/>
    </g>
</svg>
